<?xml version="1.0" encoding="UTF-8" standalone="no"?>
<!-- Generator: Adobe Illustrator 25.4.1, SVG Export Plug-In . SVG Version: 6.00 Build 0)  -->

<svg
   version="1.1"
   id="Layer_1"
   x="0px"
   y="0px"
   viewBox="0 0 134 252"
   xml:space="preserve"
   sodipodi:docname="icon_larger.svg"
   inkscape:version="1.1 (c68e22c387, 2021-05-23)"
   width="134"
   height="252"
   inkscape:export-filename="C:\Users\Nishant1\Desktop\vscode theme\dark-potion\dark-potion\assets\icon_larger.png"
   inkscape:export-xdpi="96"
   inkscape:export-ydpi="96"
   xmlns:inkscape="http://www.inkscape.org/namespaces/inkscape"
   xmlns:sodipodi="http://sodipodi.sourceforge.net/DTD/sodipodi-0.dtd"
   xmlns="http://www.w3.org/2000/svg"
   xmlns:svg="http://www.w3.org/2000/svg"><defs
   id="defs23" /><sodipodi:namedview
   id="namedview21"
   pagecolor="#ffffff"
   bordercolor="#666666"
   borderopacity="1.0"
   inkscape:pageshadow="2"
   inkscape:pageopacity="0.0"
   inkscape:pagecheckerboard="0"
   showgrid="false"
   inkscape:zoom="1.9649985"
   inkscape:cx="100.25453"
   inkscape:cy="67.430079"
   inkscape:window-width="1920"
   inkscape:window-height="1017"
   inkscape:window-x="1912"
   inkscape:window-y="-8"
   inkscape:window-maximized="1"
   inkscape:current-layer="Layer_1"
   height="252px" />
<style
   type="text/css"
   id="style2">
	.st0{fill:#564861;}
	.st1{fill:#B696D9;}
	.st2{fill:#403673;}
</style>
<path
   class="st0"
   d="m 133.65564,134.82698 c 0.0819,-30.77371 -13.75061,-52.583197 -41.697111,-65.487815 -1.001812,-0.460093 -2.389475,-1.595462 -2.411746,-2.441415 -0.1558,-6.611869 -0.12617,-13.223721 -0.11141,-19.189972 0.007,-1.840335 1.157613,-3.480315 2.894086,-4.111085 2.270725,-0.823695 4.21498,-1.491559 5.439392,-2.812437 1.283803,-1.380261 1.714194,-5.090616 0.742072,-6.634124 C 97.28652,32.220742 94.251444,30.402669 91.965839,30.358145 75.209833,30.046474 58.44639,30.19488 41.690372,30.19488 c -0.430402,0 -0.868231,-0.0073 -1.298633,0.05194 -3.6139,0.526873 -6.211158,3.376427 -5.966269,6.804796 0.259722,3.628734 2.248483,5.832678 5.958852,6.270507 0.01475,0 0.02223,0 0.03708,0.0072 2.23364,0.25972 3.918143,2.144581 3.910725,4.385638 -0.02968,5.862366 -0.09645,11.487271 0.08906,17.11217 0.08906,2.797609 -0.99438,3.925563 -3.413541,5.038672 C 14.767924,81.976279 0.68336915,102.52426 0.26038724,131.45019 -0.23680583,164.96214 0.12679895,198.48895 0.149062,232.00829 c 0.0073,12.42229 7.3316878,19.40518 20.028564,19.05641 31.233883,-0.84596 62.452903,-0.7124 93.686764,0.008 12.56331,0.28944 19.754,-6.70831 19.76144,-19.15287 0.0224,-32.36914 -0.0521,-64.73088 0.0297,-97.09261 z"
   id="path4"
   style="fill:#1452ab;fill-opacity:1;stroke-width:0.742072" />
<polygon
   class="st0"
   points="115.61,77.72 110.57,41.75 183.7,41.75 178.25,77.72 "
   id="polygon6"
   style="fill:#1452ab;fill-opacity:1"
   transform="matrix(0.74207346,0,0,0.74207145,-42.208364,-30.981483)" />
<path
   class="st1"
   d="M 112.84787,166.55795"
   id="path8"
   style="stroke-width:0.742072" />
<path
   class="st2"
   d="M 53.830786,150.9596"
   id="path10"
   style="stroke-width:0.742072" />
<path
   class="st2"
   d="m 56.116372,152.03561 0.363607,-0.98695 c 0.749504,-2.01102 2.144595,-3.50259 4.148203,-4.45243 l 1.907118,-0.89792 3.829101,4.83831 c 0.838544,-0.23005 1.691933,-0.34876 2.560158,-0.34876 0.905322,0 1.818074,0.12612 2.753096,0.37103 l 3.168647,-4.63053 1.766124,0.40813 c 1.202162,0.282 2.248494,0.7866 3.116716,1.50642 0.890482,0.73464 1.714194,1.80323 1.862604,2.011 l 1.291213,1.72161 -1.254103,1.43961 0.0965,0.5714 c 0.897902,-1.13537 1.780973,-2.26331 2.664035,-3.39126 1.855184,-2.35236 3.710358,-4.71215 5.595242,-7.07936 l 1.973915,-2.48594 28.926012,32.99991 -6.44861,-0.46751 c -1.3283,-0.0965 -2.88665,-0.19292 -4.42276,-0.19292 -2.61953,0 -4.77896,0.282 -6.78255,0.90533 -4.541498,1.31347 -7.405904,4.20012 -9.342698,9.36495 l -1.677094,-0.20036 c 0.0148,0.19295 0.378461,5.21677 0.378461,5.21677 l -4.163039,-2.0704 c -2.537895,-1.26152 -4.87544,-1.90713 -6.953235,-1.90713 -2.693726,0 -5.090621,1.06858 -7.339096,3.2577 -1.061172,1.03147 -1.996184,2.25589 -2.983146,3.55452 -0.467501,0.60851 -0.927582,1.22442 -1.409933,1.81066 -0.0594,0.0817 -0.11135,0.16326 -0.170691,0.26714 -0.07417,0.11141 -0.155841,0.23747 -0.237463,0.37104 l -2.040699,3.10185 -2.270754,-2.93118 c -0.356196,-0.46751 -0.719804,-0.935 -1.076009,-1.40993 -1.372833,-1.81065 -2.671455,-3.52484 -4.177862,-4.97931 -2.077816,-1.97391 -4.185306,-2.94602 -6.418943,-2.94602 -2.456256,0 -5.120306,1.18732 -7.932771,3.53226 l -3.851343,3.20576 -0.48234,-4.9793 c -0.0594,-0.60849 -0.103832,-1.21701 -0.133589,-1.81066 l -2.678891,-0.16327 c -0.801438,-9.04585 -4.816061,-13.76543 -12.637514,-14.87854 -0.935013,-0.13358 -1.899705,-0.22263 -2.91635,-0.3265 -0.504608,-0.052 -1.02406,-0.0965 -1.550934,-0.15584 l -5.647181,-0.60109 27.39735,-26.46226 1.840353,1.65481 c 4.229812,3.79941 8.058917,7.61366 11.346301,10.97524 -0.0072,-0.0741 -0.01475,-0.14099 -0.02223,-0.2152 l -0.07417,-0.80885"
   id="path12"
   style="fill:#0c1212;fill-opacity:1;stroke-width:0.742072" />
<path
   class="st1"
   d="m 76.018774,148.92632 c 0.972122,0.22261 1.602884,0.61592 2.025865,0.96469 0.690131,0.5714 1.439613,1.56577 1.439613,1.56577 v 0 c 0,0 -1.402503,1.6103 -2.211375,1.88487 0.571391,0.30425 1.298643,0.73464 1.914554,1.11311 0.0594,0.35619 -0.0965,0.81628 -0.341351,1.57318 -0.40814,1.23184 -1.358002,1.84777 -1.654823,2.03328 1.595463,0 2.916346,0.0297 4.229819,-0.0297 0.22262,-0.007 0.467511,-0.34136 0.645591,-0.57139 3.361608,-4.23723 6.641575,-8.44478 10.017992,-12.68943 7.487526,8.54867 14.952791,17.06023 22.573901,25.74988 -4.19272,-0.30425 -8.14797,-0.41556 -12.18485,0.81629 -5.728821,1.66224 -9.008778,5.53584 -11.049482,10.98265 -0.853382,-7.06452 -2.760516,-13.61701 -8.756479,-18.18817 4.548909,5.7362 6.433794,12.4 6.968085,19.68715 -6.270534,-3.11669 -12.155166,-3.2206 -17.319998,1.8255 -1.721603,1.66965 -3.087023,3.72519 -4.608277,5.61006 -0.185504,0.23004 -0.333934,0.49719 -0.563978,0.84596 -1.773559,-2.28558 -3.443219,-4.66763 -5.498763,-6.67122 -5.803013,-5.51359 -12.036433,-4.43758 -17.906229,0.44523 -0.845973,-8.62286 1.751286,-15.85064 7.865974,-21.83174 -6.938388,4.71217 -9.001358,12.05867 -10.678429,19.8801 -0.838548,-9.37978 -5.187105,-15.88774 -14.915691,-17.26059 -1.461872,-0.20777 -2.923762,-0.31908 -4.548906,-0.49718 7.309431,-7.06451 14.54464,-14.04742 21.527548,-20.80026 4.370821,3.93298 8.385432,7.93275 12.459424,12.11802 0.341348,0.33394 0.920168,0.54914 1.409935,0.57882 1.447045,0.0742 2.908933,0.0297 4.623112,0.0297 -1.521241,-1.16506 -2.582411,-2.33753 -2.745667,-4.17043 0.667866,-0.25231 1.33573,-0.51205 2.152012,-0.82371 -0.67529,-0.3933 -1.261526,-0.72722 -1.884861,-1.09083 0.526861,-1.40252 1.439617,-2.34496 2.790187,-2.97572 1.246686,1.5732 2.478528,3.13897 3.754892,4.74183 2.396897,-1.31346 4.764113,-1.08342 7.198118,0.007 m -1.862604,6.42633 c -1.395099,0 -2.723411,0 -4.088831,0 0.712401,2.48594 3.47291,2.47853 4.088831,0 z"
   id="path14"
   style="fill:#6eab9b;fill-opacity:1;stroke-width:0.742072" />
<ellipse
   class="st2"
   cx="65.785591"
   cy="156.21346"
   id="circle16"
   style="fill:#0c1212;fill-opacity:1;stroke-width:0.742072"
   rx="1.0166407"
   ry="1.0166379" />
<ellipse
   class="st2"
   cx="72.078362"
   cy="156.21346"
   id="circle18"
   style="fill:#0c1212;fill-opacity:1;stroke-width:0.742072"
   rx="1.0166407"
   ry="1.0166379" />
</svg>
