<?xml version="1.0" encoding="UTF-8" standalone="no"?>
<!-- Generator: Adobe Illustrator 25.4.1, SVG Export Plug-In . SVG Version: 6.00 Build 0)  -->

<svg
   version="1.1"
   id="Layer_1"
   x="0px"
   y="0px"
   viewBox="0 0 128 128"
   xml:space="preserve"
   sodipodi:docname="jonnys bottle (5).svg"
   inkscape:version="1.1 (c68e22c387, 2021-05-23)"
   width="128"
   height="128"
   xmlns:inkscape="http://www.inkscape.org/namespaces/inkscape"
   xmlns:sodipodi="http://sodipodi.sourceforge.net/DTD/sodipodi-0.dtd"
   xmlns="http://www.w3.org/2000/svg"
   xmlns:svg="http://www.w3.org/2000/svg"><defs
   id="defs23" /><sodipodi:namedview
   id="namedview21"
   pagecolor="#ffffff"
   bordercolor="#666666"
   borderopacity="1.0"
   inkscape:pageshadow="2"
   inkscape:pageopacity="0.0"
   inkscape:pagecheckerboard="0"
   showgrid="false"
   inkscape:zoom="3.9299969"
   inkscape:cx="44.78375"
   inkscape:cy="58.396993"
   inkscape:window-width="1920"
   inkscape:window-height="1017"
   inkscape:window-x="1912"
   inkscape:window-y="-8"
   inkscape:window-maximized="1"
   inkscape:current-layer="Layer_1" />
<style
   type="text/css"
   id="style2">
	.st0{fill:#564861;}
	.st1{fill:#B696D9;}
	.st2{fill:#403673;}
</style>
<path
   class="st0"
   d="m 97.506818,68.953301 c 0.0411,-15.429719 -6.894442,-26.364838 -20.906591,-32.835122 -0.502299,-0.230687 -1.198062,-0.799953 -1.209228,-1.224108 -0.07811,-3.315144 -0.06326,-6.63028 -0.05583,-9.621716 0.0037,-0.922731 0.580424,-1.745005 1.451073,-2.061269 1.138527,-0.412995 2.113361,-0.747857 2.727271,-1.410136 0.643684,-0.692053 0.859481,-2.552399 0.372065,-3.326303 -0.613909,-0.967382 -2.135669,-1.878951 -3.281648,-1.901275 -8.40133,-0.15627 -16.806383,-0.08186 -25.207713,-0.08186 -0.2158,0 -0.435324,-0.0037 -0.651124,0.02604 -1.81198,0.26417 -3.114224,1.692917 -2.991439,3.411877 0.130223,1.819421 1.127371,2.924463 2.98772,3.143987 0.0074,0 0.01115,0 0.01859,0.0036 1.119929,0.130222 1.964525,1.075278 1.960806,2.198928 -0.01488,2.939349 -0.04836,5.759636 0.04465,8.579921 0.04465,1.402701 -0.498574,1.968249 -1.711522,2.526354 -13.156382,6.072107 -20.218263,16.374713 -20.430343,30.877974 -0.249288,16.802649 -0.06698,33.612757 -0.05582,50.419117 0.0037,6.22845 3.676049,9.72962 10.042159,9.55475 15.660414,-0.42416 31.313378,-0.35719 46.973782,0.004 6.299139,0.14512 9.904491,-3.3635 9.908221,-9.60311 0.0112,-16.22966 -0.0261,-32.455612 0.0149,-48.681552 z"
   id="path4"
   style="fill:#1452ab;fill-opacity:1;stroke-width:0.372069" />
<polygon
   class="st0"
   points="115.61,77.72 110.57,41.75 183.7,41.75 178.25,77.72 "
   id="polygon6"
   style="fill:#1452ab;fill-opacity:1"
   transform="matrix(0.37206957,0,0,0.37206937,9.3300462,-14.181883)" />
<path
   class="st1"
   d="M 87.073978,84.862984"
   id="path8"
   style="stroke-width:0.372069" />
<path
   class="st2"
   d="M 57.483292,77.042086"
   id="path10"
   style="stroke-width:0.372069" />
<path
   class="st2"
   d="m 58.629266,77.581587 0.18231,-0.494849 c 0.375795,-1.00831 1.075282,-1.756173 2.079875,-2.232418 l 0.956214,-0.450206 1.919879,2.425891 c 0.42044,-0.11534 0.848322,-0.174867 1.283643,-0.174867 0.453922,0 0.911569,0.06324 1.380378,0.186034 l 1.588736,-2.321714 0.885522,0.204633 c 0.602754,0.141391 1.127372,0.394398 1.562695,0.755307 0.446481,0.368345 0.859483,0.904127 0.933893,1.008303 l 0.647402,0.863205 -0.628796,0.721811 0.04836,0.286492 c 0.450203,-0.569266 0.892966,-1.134807 1.335726,-1.700354 0.930176,-1.179457 1.86035,-2.362639 2.805413,-3.54954 l 0.989703,-1.246437 14.503268,16.545929 -3.233282,-0.234406 c -0.666003,-0.04836 -1.447346,-0.09673 -2.217535,-0.09673 -1.313412,0 -2.396134,0.14139 -3.400715,0.453923 -2.277068,0.658567 -3.713261,2.105913 -4.684354,4.69552 l -0.840876,-0.10046 c 0.0074,0.09674 0.189751,2.615649 0.189751,2.615649 L 74.829163,94.70422 c -1.27248,-0.632515 -2.444501,-0.956216 -3.486295,-0.956216 -1.350611,0 -2.552394,0.535776 -3.679762,1.63338 -0.532066,0.51718 -1.000869,1.131096 -1.495724,1.782215 -0.234403,0.3051 -0.465086,0.613916 -0.706931,0.907851 -0.02977,0.04095 -0.05583,0.08186 -0.08558,0.133946 -0.03719,0.05583 -0.07814,0.119067 -0.119065,0.186034 l -1.02319,1.555248 -1.138537,-1.469676 C 62.915485,98.242598 62.733175,98.0082 62.554577,97.770071 61.86625,96.862226 61.215131,96.002745 60.459831,95.273485 c -1.0418,-0.989705 -2.098478,-1.477111 -3.218406,-1.477111 -1.231546,0 -2.56728,0.595312 -3.977426,1.771045 l -1.931032,1.607347 -0.241842,-2.496588 c -0.02978,-0.305095 -0.05206,-0.610197 -0.06698,-0.907851 l -1.343174,-0.08186 c -0.401834,-4.535527 -2.414734,-6.901891 -6.336347,-7.459995 -0.468807,-0.06698 -0.952496,-0.111626 -1.462234,-0.163707 -0.253006,-0.02606 -0.513455,-0.04836 -0.777625,-0.07814 l -2.831451,-0.301376 13.736808,-13.267994 0.922738,0.829716 c 2.120793,1.904993 4.040675,3.817429 5.688943,5.502902 -0.0036,-0.03718 -0.0074,-0.07069 -0.01115,-0.107899 l -0.03719,-0.405554"
   id="path12"
   style="fill:#0c1212;fill-opacity:1;stroke-width:0.372069" />
<path
   class="st1"
   d="m 68.60817,76.022616 c 0.487413,0.111613 0.803671,0.308814 1.015752,0.483687 0.346024,0.286498 0.721811,0.785067 0.721811,0.785067 v 0 c 0,0 -0.703206,0.807393 -1.108766,0.945059 0.28649,0.152546 0.651125,0.368345 0.959942,0.558106 0.02977,0.17859 -0.04836,0.409277 -0.171152,0.788782 -0.204638,0.617635 -0.68089,0.926456 -0.829716,1.019472 0.799951,0 1.462232,0.01489 2.120793,-0.01488 0.111627,-0.0036 0.234406,-0.171154 0.3237,-0.286492 1.685478,-2.124516 3.330025,-4.234149 5.02294,-6.36239 3.754184,4.286242 7.497205,8.553875 11.318363,12.91081 -2.102195,-0.152551 -4.085324,-0.208358 -6.10938,0.409277 -2.872384,0.833436 -4.516923,2.775637 -5.540123,5.506627 -0.427872,-3.542102 -1.384098,-6.827473 -4.39042,-9.119422 2.280784,2.876094 3.225846,6.217277 3.493738,9.870999 -3.143993,-1.56269 -6.094503,-1.614783 -8.684106,0.915294 -0.8632,0.837153 -1.547809,1.867784 -2.310553,2.812845 -0.09301,0.115338 -0.167432,0.249283 -0.282774,0.424156 -0.889248,-1.145974 -1.726402,-2.340317 -2.757035,-3.344902 -2.909583,-2.764474 -6.034969,-2.224975 -8.978037,0.223237 -0.424164,-4.323445 0.87808,-7.9474 3.943935,-10.94628 -3.478851,2.362645 -4.513207,6.046129 -5.354077,9.967742 -0.420441,-4.702956 -2.600772,-7.966004 -7.478606,-8.654338 -0.732971,-0.104174 -1.46595,-0.159987 -2.280784,-0.249283 3.664889,-3.542097 7.292564,-7.043274 10.793737,-10.429103 2.191494,1.971966 4.204387,3.977422 6.247053,6.075893 0.171149,0.16743 0.461365,0.27533 0.70693,0.29021 0.725537,0.03719 1.458516,0.0149 2.317991,0.0149 -0.762738,-0.584151 -1.2948,-1.17202 -1.376655,-2.091028 0.334862,-0.126504 0.669724,-0.256733 1.079001,-0.413001 -0.338585,-0.197196 -0.632519,-0.364627 -0.945054,-0.546938 0.264164,-0.703212 0.721812,-1.175738 1.398977,-1.492003 0.625078,0.788791 1.242714,1.573856 1.882672,2.377526 1.201785,-0.658563 2.388687,-0.543224 3.609078,0.0036 m -0.933897,3.222122 c -0.699489,0 -1.365493,0 -2.050104,0 0.357192,1.246432 1.741289,1.242713 2.050104,0 z"
   id="path14"
   style="fill:#6eab9b;fill-opacity:1;stroke-width:0.372069" />
<ellipse
   class="st2"
   cx="63.477333"
   cy="79.676338"
   id="circle16"
   style="fill:#0c1212;fill-opacity:1;stroke-width:0.372069"
   rx="0.50973535"
   ry="0.50973505" />
<ellipse
   class="st2"
   cx="66.632477"
   cy="79.676338"
   id="circle18"
   style="fill:#0c1212;fill-opacity:1;stroke-width:0.372069"
   rx="0.50973535"
   ry="0.50973505" />
</svg>
