<?xml version="1.0" encoding="UTF-8" standalone="no"?>
<!-- Generator: Adobe Illustrator 25.4.1, SVG Export Plug-In . SVG Version: 6.00 Build 0)  -->

<svg
   version="1.1"
   id="Layer_1"
   x="0px"
   y="0px"
   viewBox="0 0 252 252"
   xml:space="preserve"
   sodipodi:docname="icon_larger_display.svg"
   inkscape:version="1.1 (c68e22c387, 2021-05-23)"
   width="252"
   height="252"
   inkscape:export-filename="C:\Users\Nishant1\Desktop\vscode theme\dark-potion\dark-potion\assets\icon_larger_display.png"
   inkscape:export-xdpi="96"
   inkscape:export-ydpi="96"
   xmlns:inkscape="http://www.inkscape.org/namespaces/inkscape"
   xmlns:sodipodi="http://sodipodi.sourceforge.net/DTD/sodipodi-0.dtd"
   xmlns="http://www.w3.org/2000/svg"
   xmlns:svg="http://www.w3.org/2000/svg"><defs
   id="defs23" /><sodipodi:namedview
   id="namedview21"
   pagecolor="#ffffff"
   bordercolor="#666666"
   borderopacity="1.0"
   inkscape:pageshadow="2"
   inkscape:pageopacity="0.0"
   inkscape:pagecheckerboard="0"
   showgrid="false"
   inkscape:zoom="1.9649985"
   inkscape:cx="100.76344"
   inkscape:cy="108.65148"
   inkscape:window-width="1920"
   inkscape:window-height="1017"
   inkscape:window-x="1912"
   inkscape:window-y="-8"
   inkscape:window-maximized="1"
   inkscape:current-layer="Layer_1"
   height="252px" />
<style
   type="text/css"
   id="style2">
	.st0{fill:#564861;}
	.st1{fill:#B696D9;}
	.st2{fill:#403673;}
</style>
<path
   class="st0"
   d="m 192.82764,134.82698 c 0.0819,-30.77371 -13.75061,-52.583197 -41.69711,-65.487815 -1.00181,-0.460093 -2.38948,-1.595462 -2.41175,-2.441415 -0.1558,-6.611869 -0.12617,-13.223721 -0.11141,-19.189972 0.007,-1.840335 1.15761,-3.480315 2.89409,-4.111085 2.27072,-0.823695 4.21498,-1.491559 5.43939,-2.812437 1.2838,-1.380261 1.71419,-5.090616 0.74207,-6.634124 -1.2244,-1.92939 -4.25948,-3.747463 -6.54508,-3.791987 -16.75601,-0.311671 -33.51945,-0.163265 -50.27547,-0.163265 -0.4304,0 -0.868229,-0.0073 -1.298631,0.05194 -3.6139,0.526873 -6.211158,3.376427 -5.966269,6.804796 0.259722,3.628734 2.248483,5.832678 5.958852,6.270507 0.01475,0 0.02223,0 0.03708,0.0072 2.233638,0.25972 3.918138,2.144581 3.910728,4.385638 -0.0297,5.862366 -0.0965,11.487271 0.0891,17.11217 0.0891,2.797609 -0.99438,3.925563 -3.41354,5.038672 -26.239726,12.110476 -40.324281,32.658457 -40.747263,61.584387 -0.497193,33.51195 -0.133588,67.03876 -0.111325,100.5581 0.0073,12.42229 7.331688,19.40518 20.028564,19.05641 31.233884,-0.84596 62.452904,-0.7124 93.686764,0.008 12.56331,0.28944 19.754,-6.70831 19.76144,-19.15287 0.0224,-32.36914 -0.0521,-64.73088 0.0297,-97.09261 z"
   id="path4"
   style="fill:#1452ab;fill-opacity:1;stroke-width:0.742072" />
<polygon
   class="st0"
   points="183.7,41.75 178.25,77.72 115.61,77.72 110.57,41.75 "
   id="polygon6"
   style="fill:#1452ab;fill-opacity:1"
   transform="matrix(0.74207345,0,0,0.74207145,16.963636,-30.981483)" />
<path
   class="st1"
   d="M 172.01987,166.55795"
   id="path8"
   style="stroke-width:0.742072" />
<path
   class="st2"
   d="M 113.00279,150.9596"
   id="path10"
   style="stroke-width:0.742072" />
<path
   class="st2"
   d="m 115.28837,152.03561 0.36361,-0.98695 c 0.7495,-2.01102 2.14459,-3.50259 4.1482,-4.45243 l 1.90712,-0.89792 3.8291,4.83831 c 0.83854,-0.23005 1.69193,-0.34876 2.56016,-0.34876 0.90532,0 1.81807,0.12612 2.75309,0.37103 l 3.16865,-4.63053 1.76613,0.40813 c 1.20216,0.282 2.24849,0.7866 3.11671,1.50642 0.89048,0.73464 1.7142,1.80323 1.86261,2.011 l 1.29121,1.72161 -1.2541,1.43961 0.0965,0.5714 c 0.8979,-1.13537 1.78097,-2.26331 2.66403,-3.39126 1.85518,-2.35236 3.71036,-4.71215 5.59524,-7.07936 l 1.97392,-2.48594 28.92601,32.99991 -6.44861,-0.46751 c -1.3283,-0.0965 -2.88665,-0.19292 -4.42276,-0.19292 -2.61953,0 -4.77896,0.282 -6.78255,0.90533 -4.5415,1.31347 -7.40591,4.20012 -9.3427,9.36495 l -1.67709,-0.20036 c 0.0148,0.19295 0.37846,5.21677 0.37846,5.21677 l -4.16304,-2.0704 c -2.5379,-1.26152 -4.87544,-1.90713 -6.95324,-1.90713 -2.69372,0 -5.09062,1.06858 -7.33909,3.2577 -1.06117,1.03147 -1.99619,2.25589 -2.98315,3.55452 -0.4675,0.60851 -0.92758,1.22442 -1.40993,1.81066 -0.0594,0.0817 -0.11135,0.16326 -0.17069,0.26714 -0.0742,0.11141 -0.15584,0.23747 -0.23746,0.37104 l -2.0407,3.10185 -2.27076,-2.93118 c -0.35619,-0.46751 -0.7198,-0.935 -1.07601,-1.40993 -1.37283,-1.81065 -2.67145,-3.52484 -4.17786,-4.97931 -2.07781,-1.97391 -4.1853,-2.94602 -6.41894,-2.94602 -2.45626,0 -5.12031,1.18732 -7.93277,3.53226 l -3.85135,3.20576 -0.48234,-4.9793 c -0.0594,-0.60849 -0.10383,-1.21701 -0.13358,-1.81066 l -2.678895,-0.16327 c -0.801438,-9.04585 -4.816061,-13.76543 -12.637514,-14.87854 -0.935013,-0.13358 -1.899705,-0.22263 -2.91635,-0.3265 -0.504608,-0.052 -1.02406,-0.0965 -1.550934,-0.15584 l -5.647181,-0.60109 27.397354,-26.46226 1.84035,1.65481 c 4.22981,3.79941 8.05892,7.61366 11.3463,10.97524 -0.007,-0.0741 -0.0147,-0.14099 -0.0222,-0.2152 l -0.0742,-0.80885"
   id="path12"
   style="fill:#0c1212;fill-opacity:1;stroke-width:0.742072" />
<path
   class="st1"
   d="m 135.19077,148.92632 c 0.97213,0.22261 1.60289,0.61592 2.02587,0.96469 0.69013,0.5714 1.43961,1.56577 1.43961,1.56577 v 0 c 0,0 -1.4025,1.6103 -2.21137,1.88487 0.57139,0.30425 1.29864,0.73464 1.91455,1.11311 0.0594,0.35619 -0.0965,0.81628 -0.34135,1.57318 -0.40814,1.23184 -1.358,1.84777 -1.65482,2.03328 1.59546,0 2.91634,0.0297 4.22982,-0.0297 0.22262,-0.007 0.46751,-0.34136 0.64559,-0.57139 3.3616,-4.23723 6.64157,-8.44478 10.01799,-12.68943 7.48752,8.54867 14.95279,17.06023 22.5739,25.74988 -4.19272,-0.30425 -8.14797,-0.41556 -12.18485,0.81629 -5.72882,1.66224 -9.00878,5.53584 -11.04948,10.98265 -0.85339,-7.06452 -2.76052,-13.61701 -8.75648,-18.18817 4.54891,5.7362 6.43379,12.4 6.96808,19.68715 -6.27053,-3.11669 -12.15516,-3.2206 -17.31999,1.8255 -1.72161,1.66965 -3.08703,3.72519 -4.60828,5.61006 -0.18551,0.23004 -0.33394,0.49719 -0.56398,0.84596 -1.77356,-2.28558 -3.44322,-4.66763 -5.49876,-6.67122 -5.80302,-5.51359 -12.03644,-4.43758 -17.90623,0.44523 -0.84597,-8.62286 1.75128,-15.85064 7.86597,-21.83174 -6.93839,4.71217 -9.00136,12.05867 -10.67843,19.8801 -0.838544,-9.37978 -5.187101,-15.88774 -14.915687,-17.26059 -1.461872,-0.20777 -2.923762,-0.31908 -4.548906,-0.49718 7.309431,-7.06451 14.54464,-14.04742 21.527543,-20.80026 4.37083,3.93298 8.38544,7.93275 12.45943,12.11802 0.34135,0.33394 0.92017,0.54914 1.40993,0.57882 1.44705,0.0742 2.90894,0.0297 4.62312,0.0297 -1.52125,-1.16506 -2.58242,-2.33753 -2.74567,-4.17043 0.66786,-0.25231 1.33573,-0.51205 2.15201,-0.82371 -0.67529,-0.3933 -1.26153,-0.72722 -1.88486,-1.09083 0.52686,-1.40252 1.43962,-2.34496 2.79019,-2.97572 1.24668,1.5732 2.47852,3.13897 3.75489,4.74183 2.3969,-1.31346 4.76411,-1.08342 7.19812,0.007 m -1.86261,6.42633 c -1.3951,0 -2.72341,0 -4.08883,0 0.7124,2.48594 3.47291,2.47853 4.08883,0 z"
   id="path14"
   style="fill:#6eab9b;fill-opacity:1;stroke-width:0.742072" />
<ellipse
   class="st2"
   cx="124.95759"
   cy="156.21346"
   id="circle16"
   style="fill:#0c1212;fill-opacity:1;stroke-width:0.742072"
   rx="1.0166407"
   ry="1.0166379" />
<ellipse
   class="st2"
   cx="131.25037"
   cy="156.21346"
   id="circle18"
   style="fill:#0c1212;fill-opacity:1;stroke-width:0.742072"
   rx="1.0166407"
   ry="1.0166379" />
</svg>
